<svg xmlns="http://www.w3.org/2000/svg" viewBox="0 0 1080 1080" role="img" aria-labelledby="title">
  <title id="title">Perfil Instagram SoulCont</title>
  <rect width="1080" height="1080" fill="#F7F4EE"/>
  <circle cx="540" cy="540" r="452" fill="#071B2E"/>
  <circle cx="540" cy="540" r="420" fill="none" stroke="#C7A15A" stroke-width="22"/>
  <path d="M732 396c-48-40-105-60-170-60-120 0-208 78-208 188 0 81 48 137 143 172l66 24c30 11 45 24 45 42 0 23-23 38-61 38-50 0-94-21-132-64l-63 63c49 58 114 87 193 87 122 0 211-70 211-180 0-80-48-138-144-173l-69-26c-28-10-42-23-42-40 0-23 22-38 56-38 35 0 67 15 97 44z" fill="#C7A15A"/>
  <circle cx="775" cy="357" r="28" fill="#F7F4EE"/>
</svg>
