<svg xmlns="http://www.w3.org/2000/svg" viewBox="0 0 560 112" role="img" aria-labelledby="title desc">
  <title id="title">SoulCont</title>
  <desc id="desc">Marca SoulCont em azul profundo, branco quente e dourado.</desc>
  <defs>
    <linearGradient id="gold" x1="0" x2="1">
      <stop stop-color="#E8D4A7"/>
      <stop offset=".55" stop-color="#C7A15A"/>
      <stop offset="1" stop-color="#A97B31"/>
    </linearGradient>
  </defs>
  <g transform="translate(8 8)">
    <rect width="96" height="96" rx="26" fill="#071B2E"/>
    <rect x="1.5" y="1.5" width="93" height="93" rx="24.5" fill="none" stroke="#C7A15A" stroke-opacity=".72" stroke-width="3"/>
    <path d="M69 29c-6.2-5.2-13.7-7.8-22.2-7.8-15.7 0-27.2 10.1-27.2 24.3 0 10.5 6.3 17.6 18.8 22.1l8.9 3.2c4.1 1.5 6 3.2 6 5.6 0 3.2-3.2 5.2-8.2 5.2-6.1 0-11.6-2.6-16.3-7.7l-8.7 8.7c6.3 7.4 14.8 11.2 25.2 11.2 15.9 0 27.3-9.2 27.3-23.7 0-10.3-6.2-17.8-18.7-22.4l-9.2-3.4c-3.8-1.4-5.8-3.1-5.8-5.3 0-3.1 3-5.1 7.6-5.1 4.2 0 8.3 1.8 12.3 5.5z" fill="url(#gold)"/>
    <circle cx="74" cy="24" r="4" fill="#F7F4EE"/>
  </g>
  <g font-family="Inter, Arial, Helvetica, sans-serif" dominant-baseline="middle">
    <text x="132" y="60" fill="#F7F4EE" font-size="49" font-weight="500" letter-spacing="9">SOUL</text>
    <text x="318" y="60" fill="#C7A15A" font-size="49" font-weight="800" letter-spacing="4">CONT</text>
  </g>
</svg>
